<?xml version="1.0" encoding="UTF-8" standalone="no"?>
<svg xmlns="http://www.w3.org/2000/svg"
	 width="38"
	 height="38"
	 viewBox="0 -11 16 38"
	 preserveAspectRatio="xMidYMin"
	 fill="currentColor"
	 style="fill-rule:evenodd;clip-rule:evenodd;stroke-linejoin:round;stroke-miterlimit:2;">
	
  <path d="M4 3a1 1 0 0 1 1-1h6a1 1 0 0 1 1 1v3a1 1 0 0 1-1 1H5a1 1 0 0 1-1-1V3zm1 0v3h6V3H5zm3 9a1 1 0 1 0 0-2 1 1 0 0 0 0 2z" style="fill:#ffffff;fill-rule:nonzero;stroke-width:0.838376"/>
  <path d="M11 11a3 3 0 1 1-6 0 3 3 0 0 1 6 0zm-3 2a2 2 0 1 0 0-4 2 2 0 0 0 0 4z" style="fill:#ffffff;fill-rule:nonzero;stroke-width:0.838376"/>
  <path d="M2 2a2 2 0 0 1 2-2h8a2 2 0 0 1 2 2v12a2 2 0 0 1-2 2H4a2 2 0 0 1-2-2V2zm2-1a1 1 0 0 0-1 1v12a1 1 0 0 0 1 1h8a1 1 0 0 0 1-1V2a1 1 0 0 0-1-1H4z" style="fill:#ffffff;fill-rule:nonzero;stroke-width:0.838376"/>
</svg>